<mxfile host="app.diagrams.net" modified="2022-01-17T03:28:30.034Z" agent="5.0 (Windows NT 10.0; Win64; x64) AppleWebKit/537.36 (KHTML, like Gecko) Chrome/97.0.4692.71 Safari/537.36" etag="llrqiZFDmxwDArG6Xz5p" version="16.2.7" type="github">
  <diagram id="CrLj3X9z7ieBR8Cq9rCk" name="Page-1">
    <mxGraphModel dx="1209" dy="693" grid="1" gridSize="10" guides="1" tooltips="1" connect="1" arrows="1" fold="1" page="1" pageScale="1" pageWidth="827" pageHeight="1169" math="0" shadow="0">
      <root>
        <mxCell id="0" />
        <mxCell id="1" parent="0" />
        <mxCell id="OYXxx6GnJ1YH08dWUHwO-1" value="" style="ellipse;whiteSpace=wrap;html=1;aspect=fixed;" parent="1" vertex="1">
          <mxGeometry x="240" y="140" width="80" height="80" as="geometry" />
        </mxCell>
        <mxCell id="OYXxx6GnJ1YH08dWUHwO-2" value="Classname" style="swimlane;fontStyle=1;align=center;verticalAlign=top;childLayout=stackLayout;horizontal=1;startSize=26;horizontalStack=0;resizeParent=1;resizeParentMax=0;resizeLast=0;collapsible=1;marginBottom=0;" parent="1" vertex="1">
          <mxGeometry x="370" y="200" width="160" height="86" as="geometry">
            <mxRectangle x="370" y="200" width="100" height="26" as="alternateBounds" />
          </mxGeometry>
        </mxCell>
        <mxCell id="OYXxx6GnJ1YH08dWUHwO-3" value="+ field: type" style="text;strokeColor=none;fillColor=none;align=left;verticalAlign=top;spacingLeft=4;spacingRight=4;overflow=hidden;rotatable=0;points=[[0,0.5],[1,0.5]];portConstraint=eastwest;" parent="OYXxx6GnJ1YH08dWUHwO-2" vertex="1">
          <mxGeometry y="26" width="160" height="26" as="geometry" />
        </mxCell>
        <mxCell id="OYXxx6GnJ1YH08dWUHwO-4" value="" style="line;strokeWidth=1;fillColor=none;align=left;verticalAlign=middle;spacingTop=-1;spacingLeft=3;spacingRight=3;rotatable=0;labelPosition=right;points=[];portConstraint=eastwest;" parent="OYXxx6GnJ1YH08dWUHwO-2" vertex="1">
          <mxGeometry y="52" width="160" height="8" as="geometry" />
        </mxCell>
        <mxCell id="OYXxx6GnJ1YH08dWUHwO-5" value="+ method(type): type" style="text;strokeColor=none;fillColor=none;align=left;verticalAlign=top;spacingLeft=4;spacingRight=4;overflow=hidden;rotatable=0;points=[[0,0.5],[1,0.5]];portConstraint=eastwest;" parent="OYXxx6GnJ1YH08dWUHwO-2" vertex="1">
          <mxGeometry y="60" width="160" height="26" as="geometry" />
        </mxCell>
        <mxCell id="kplfV1_e7pMEmZNL-dmw-2" style="rounded=0;orthogonalLoop=1;jettySize=auto;html=1;entryX=0;entryY=0.5;entryDx=0;entryDy=0;shadow=0;" edge="1" parent="1" source="kplfV1_e7pMEmZNL-dmw-1" target="OYXxx6GnJ1YH08dWUHwO-1">
          <mxGeometry relative="1" as="geometry" />
        </mxCell>
        <mxCell id="kplfV1_e7pMEmZNL-dmw-1" value="" style="rounded=1;whiteSpace=wrap;html=1;" vertex="1" parent="1">
          <mxGeometry x="70" y="330" width="120" height="60" as="geometry" />
        </mxCell>
      </root>
    </mxGraphModel>
  </diagram>
</mxfile>
